<svg width="94" height="68" viewBox="0 0 94 68" fill="none" xmlns="http://www.w3.org/2000/svg">
<path d="M77.2486 25.2176C77.2486 39.0831 63.9173 50.3316 47.4743 50.3316C31.0313 50.3316 17.7 39.0831 17.7 25.2176C17.7 11.3522 31.0291 0.103683 47.4743 0.103683C63.9195 0.103683 77.2486 11.3478 77.2486 25.2176Z" fill="#004098"/>
<path d="M67.8962 6.81335C62.2738 2.56502 54.8324 -0.26245 45.8735 0.01931C31.21 0.478678 17.6506 11.2634 17.6506 25.0532C17.6506 33.653 22.5889 41.2254 30.107 45.7171L30.4075 45.8246C30.4075 45.8246 30.288 45.5483 30.0862 45.374C24.2204 41.6091 20.4169 35.5924 19.7558 28.2732C18.6944 16.6826 30.1564 6.9197 44.8199 6.74648C46.8877 6.69495 48.2922 6.81664 48.5521 6.81664C49.666 6.81664 49.4851 7.97 49.4851 7.97C49.4851 7.97 40.0318 25.5488 39.659 26.5147C39.2885 27.4762 39.8465 27.8654 39.8465 27.8654L64.7747 43.8402C64.7791 43.8303 64.7911 43.8303 64.7955 43.8215L47.4469 25.3569L67.894 6.81226L67.8962 6.81335Z" fill="#EA5504"/>
<path d="M34.1735 55.9296H30.699V67.2351H34.1735V55.9296Z" fill="#004098"/>
<path d="M37.2029 59.053H42.9349C42.128 55.6577 37.9407 55.6719 37.0472 55.6719H30.7285L30.7241 59.053H37.2029Z" fill="#004098"/>
<path d="M34.5071 61.8005V61.7446H30.73V67.0574H33.8482V64.6521H37.0278C37.0278 64.6521 39.907 64.9196 41.0604 61.8345L34.5071 61.8016V61.8005Z" fill="#004098"/>
<path d="M41.2916 61.796H32.403V64.6608H41.2916V61.796Z" fill="#004098"/>
<path d="M44.8954 67.2253H41.2498L37.7303 61.8335H41.3814L44.8954 67.2253Z" fill="#004098"/>
<path d="M6.71799 55.7234C3.47698 55.7234 0.844482 58.6353 0.844482 61.8092C0.844482 64.9831 3.47698 67.2339 6.71799 67.2339H16.2601V64.0929H6.71799C5.36282 64.0929 4.26969 63.0656 4.26969 61.8092C4.26969 60.5528 5.36282 59.1933 6.71799 59.1933H14.6352V55.7234H6.71799Z" fill="#004098"/>
<path d="M16.8984 67.2351H13.1256L20.9705 55.6061H24.7411L16.8984 67.2351Z" fill="#004098"/>
<path d="M28.8317 67.235H32.6089L24.7618 55.6061H20.989L28.8317 67.235Z" fill="#004098"/>
<path d="M48.5671 64.7924L48.5714 67.2351H44.7844V61.8476H51.2741C51.2741 61.8476 53.1665 61.8805 53.1665 60.3752C53.1665 60.3752 53.1545 59.109 51.2599 59.109H44.7844V55.6862H51.1097C52.0964 55.6862 57.1257 55.6577 57.1257 60.3467C57.1257 65.0358 51.0877 64.7968 51.0877 64.7968L48.5649 64.7924H48.5671Z" fill="#EA5504"/>
<path d="M60.8044 64.3747V55.6818H57.139V67.2351H67.4881V64.3747H60.8044Z" fill="#EA5504"/>
<path d="M80.3063 63.7465V55.6961H76.6421V63.7465C76.6421 63.7465 76.5971 65.1202 73.8594 65.1202C71.1216 65.1202 70.9615 63.7465 70.9615 63.7465V55.6961H67.2995V63.7465C67.2995 63.7465 67.2096 67.5826 73.8035 67.5826C80.3973 67.5826 80.3074 63.7465 80.3074 63.7465H80.3063Z" fill="#EA5504"/>
<path d="M80.7548 63.9898C82.0234 64.4021 83.8687 64.8154 85.8356 64.8154C86.9419 64.8154 88.6326 64.9842 88.694 63.8539C88.8091 61.8377 80.3075 63.2586 80.3075 58.9445C80.3075 56.1926 83.8698 55.0809 87.0033 55.0809C88.865 55.0809 90.7509 55.3057 92.4854 55.8265L92.4898 58.7997C91.3407 58.2647 89.0383 57.6464 87.6853 57.6464C86.5154 57.6464 84.2195 57.9139 84.2097 58.8513C84.1844 60.7271 93.0446 59.5595 93.1542 63.5688C93.2365 66.7384 89.6753 67.5398 86.1295 67.5398C83.8369 67.5398 82.2723 67.3753 80.7581 67.0333C80.7537 64.7693 80.7537 63.9909 80.7537 63.9909L80.7548 63.9898Z" fill="#EA5504"/>
<path d="M19.1655 67.1595L22.8648 61.8049L26.5718 67.1595H19.1655Z" fill="#EA5504"/>
</svg>
